<?xml version="1.0" encoding="UTF-8" standalone="no"?>
<svg
   xmlns:dc="http://purl.org/dc/elements/1.1/"
   xmlns:cc="http://creativecommons.org/ns#"
   xmlns:rdf="http://www.w3.org/1999/02/22-rdf-syntax-ns#"
   xmlns:svg="http://www.w3.org/2000/svg"
   xmlns="http://www.w3.org/2000/svg"
   xmlns:sodipodi="http://sodipodi.sourceforge.net/DTD/sodipodi-0.dtd"
   xmlns:inkscape="http://www.inkscape.org/namespaces/inkscape"
   width="118"
   height="66"
   viewBox="0 0 118 66"
   version="1.1"
   id="svg12"
   sodipodi:docname="binoculars.svg"
   inkscape:version="0.92.1 unknown">
  <metadata
     id="metadata18">
    <rdf:RDF>
      <cc:Work
         rdf:about="">
        <dc:format>image/svg+xml</dc:format>
        <dc:type
           rdf:resource="http://purl.org/dc/dcmitype/StillImage" />
        <dc:title></dc:title>
      </cc:Work>
    </rdf:RDF>
  </metadata>
  <defs
     id="defs16" />
  <sodipodi:namedview
     pagecolor="#ffffff"
     bordercolor="#666666"
     borderopacity="1"
     objecttolerance="10"
     gridtolerance="10"
     guidetolerance="10"
     inkscape:pageopacity="0"
     inkscape:pageshadow="2"
     inkscape:window-width="1920"
     inkscape:window-height="987"
     id="namedview14"
     showgrid="false"
     inkscape:zoom="3.2118644"
     inkscape:cx="0.62269129"
     inkscape:cy="33"
     inkscape:window-x="1366"
     inkscape:window-y="30"
     inkscape:window-maximized="1"
     inkscape:current-layer="svg12" />
  <g
     fill="none"
     fill-rule="evenodd"
     id="g10"
     style="fill:#ff6600">
    <path
       fill="#FFF"
       d="M106.912 16.51c.001-.022.004-.044.004-.067v-1.84c0-5.009-4.092-9.084-9.121-9.084H87.097A14.7 14.7 0 0 0 75.627 0a14.7 14.7 0 0 0-11.472 5.52h-10.31A14.7 14.7 0 0 0 42.374 0a14.7 14.7 0 0 0-11.472 5.52H20.205c-5.029 0-9.12 4.074-9.12 9.083v1.84c0 .023.002.045.003.068C4.36 21.527 0 29.525 0 38.519 0 53.672 12.379 66 27.595 66S55.19 53.672 55.19 38.52c0-.965-.05-1.918-.149-2.857a9.097 9.097 0 0 0 3.959.901 9.1 9.1 0 0 0 3.959-.9 27.525 27.525 0 0 0-.149 2.855C62.81 53.672 75.19 66 90.405 66 105.621 66 118 53.672 118 38.52c0-8.995-4.36-16.993-11.088-22.01zM75.626 3.45c2.35 0 4.607.743 6.48 2.07H69.147a11.212 11.212 0 0 1 6.478-2.07zm-33.252 0c2.35 0 4.607.743 6.479 2.07H35.895a11.212 11.212 0 0 1 6.479-2.07zm-14.78 59.1c-13.305 0-24.13-10.78-24.13-24.03 0-13.252 10.825-24.032 24.13-24.032 13.307 0 24.132 10.78 24.132 24.031S40.901 62.551 27.595 62.551zm25.748-35.07c0-3.106 2.539-5.633 5.658-5.633 3.12 0 5.658 2.527 5.658 5.634 0 3.106-2.539 5.634-5.658 5.634-3.12 0-5.658-2.528-5.658-5.634zM59 18.398a9.135 9.135 0 0 0-8.244 5.2c-4.923-7.552-13.465-12.559-23.161-12.559a27.516 27.516 0 0 0-13.04 3.267c.157-2.968 2.631-5.336 5.65-5.336h77.589c3.02 0 5.494 2.368 5.65 5.336a27.516 27.516 0 0 0-13.039-3.267c-9.696 0-18.238 5.007-23.161 12.559a9.135 9.135 0 0 0-8.244-5.2zm31.405 44.154c-13.306 0-24.131-10.78-24.131-24.032 0-13.25 10.825-24.031 24.131-24.031 13.306 0 24.131 10.78 24.131 24.031s-10.825 24.032-24.13 24.032z"
       id="path2"
       style="fill:#ff6600" />
    <path
       fill="#FF407A"
       d="M53.342 27.48c0-3.106 2.539-5.633 5.658-5.633 3.12 0 5.658 2.527 5.658 5.634 0 3.106-2.539 5.634-5.658 5.634-3.12 0-5.658-2.528-5.658-5.634z"
       id="path4"
       style="fill:#ff6600" />
    <path
       fill="#FFF"
       d="M89.704 20.4c-10.29 0-18.663 8.344-18.663 18.6 0 10.256 8.372 18.6 18.663 18.6s18.663-8.344 18.663-18.6c0-10.256-8.372-18.6-18.663-18.6zm0 34.011c-8.527 0-15.464-6.913-15.464-15.411s6.937-15.411 15.464-15.411c8.527 0 15.464 6.913 15.464 15.411S98.23 54.411 89.704 54.411zM27.092 20.4C16.8 20.4 8.429 28.744 8.429 39c0 10.256 8.372 18.6 18.663 18.6 10.29 0 18.663-8.344 18.663-18.6 0-10.256-8.372-18.6-18.663-18.6zm0 34.011c-8.527 0-15.464-6.913-15.464-15.411s6.937-15.411 15.464-15.411c8.527 0 15.464 6.913 15.464 15.411s-6.937 15.411-15.464 15.411z"
       id="path6"
       style="fill:#ff6600" />
    <path
       fill="#FFF"
       d="M90.822 26.4c-.95 0-1.72.768-1.72 1.714 0 .947.77 1.715 1.72 1.715 5.122 0 9.289 4.152 9.289 9.257 0 .946.77 1.714 1.72 1.714s1.72-.768 1.72-1.714c0-6.995-5.71-12.686-12.729-12.686zM27.006 26.4c-.95 0-1.72.768-1.72 1.714 0 .947.77 1.715 1.72 1.715 5.122 0 9.288 4.152 9.288 9.257 0 .946.77 1.714 1.72 1.714s1.72-.768 1.72-1.714c0-6.995-5.71-12.686-12.728-12.686z"
       id="path8"
       style="fill:#ff6600" />
  </g>
</svg>
