<?xml version="1.0" encoding="UTF-8" standalone="no"?>
<svg
   xmlns:dc="http://purl.org/dc/elements/1.1/"
   xmlns:cc="http://creativecommons.org/ns#"
   xmlns:rdf="http://www.w3.org/1999/02/22-rdf-syntax-ns#"
   xmlns:svg="http://www.w3.org/2000/svg"
   xmlns="http://www.w3.org/2000/svg"
   xmlns:sodipodi="http://sodipodi.sourceforge.net/DTD/sodipodi-0.dtd"
   xmlns:inkscape="http://www.inkscape.org/namespaces/inkscape"
   width="22"
   height="24"
   viewBox="0 0 22 24"
   version="1.1"
   id="svg8"
   sodipodi:docname="calendar.svg"
   inkscape:version="0.92.1 unknown">
  <metadata
     id="metadata14">
    <rdf:RDF>
      <cc:Work
         rdf:about="">
        <dc:format>image/svg+xml</dc:format>
        <dc:type
           rdf:resource="http://purl.org/dc/dcmitype/StillImage" />
        <dc:title></dc:title>
      </cc:Work>
    </rdf:RDF>
  </metadata>
  <defs
     id="defs12" />
  <sodipodi:namedview
     pagecolor="#ffffff"
     bordercolor="#666666"
     borderopacity="1"
     objecttolerance="10"
     gridtolerance="10"
     guidetolerance="10"
     inkscape:pageopacity="0"
     inkscape:pageshadow="2"
     inkscape:window-width="1920"
     inkscape:window-height="987"
     id="namedview10"
     showgrid="false"
     inkscape:zoom="9.8333333"
     inkscape:cx="11"
     inkscape:cy="12"
     inkscape:window-x="1366"
     inkscape:window-y="30"
     inkscape:window-maximized="1"
     inkscape:current-layer="svg8" />
  <g
     fill="#34C5E4"
     fill-rule="nonzero"
     id="g6">
    <path
       d="M18.988 3.106h-1.336V.845c0-.436-.34-.79-.76-.79-.418 0-.759.354-.759.79v2.26H11.76V.846c0-.436-.341-.79-.76-.79s-.76.354-.76.79v2.26H5.867V.846c0-.436-.34-.79-.76-.79-.419 0-.76.354-.76.79v2.26H3.013C1.44 3.106.157 4.442.157 6.076V20.08c0 1.635 1.283 2.97 2.855 2.97h15.976c1.572 0 2.855-1.335 2.855-2.97V6.076c0-1.635-1.283-2.97-2.855-2.97zm1.336 16.973c0 .763-.603 1.39-1.336 1.39H3.012c-.733 0-1.336-.627-1.336-1.39V6.076c0-.763.603-1.39 1.336-1.39h1.336v1.09c0 .436.34.79.76.79.418 0 .759-.354.759-.79v-1.09h4.373v1.09c0 .436.341.79.76.79s.76-.354.76-.79v-1.09h4.373v1.09c0 .436.34.79.76.79.419 0 .76-.354.76-.79v-1.09h1.335c.733 0 1.336.627 1.336 1.39v14.003z"
       id="path2" />
    <path
       d="M7.019 10.19H4.217c-.42 0-.76.354-.76.79 0 .435.34.79.76.79h2.802c.42 0 .76-.355.76-.79 0-.436-.34-.79-.76-.79zM7.019 17.546H4.217c-.42 0-.76.354-.76.79 0 .436.34.79.76.79h2.802c.42 0 .76-.354.76-.79 0-.436-.34-.79-.76-.79zM7.019 13.867H4.217c-.42 0-.76.355-.76.79 0 .436.34.79.76.79h2.802c.42 0 .76-.354.76-.79 0-.435-.34-.79-.76-.79z"
       id="path4" />
  </g>
</svg>
