<?xml version="1.0" encoding="UTF-8"?>
<svg width="28px" height="28px" viewBox="0 0 28 28" version="1.1" xmlns="http://www.w3.org/2000/svg" xmlns:xlink="http://www.w3.org/1999/xlink">
    <!-- Generator: Sketch 42 (36781) - http://www.bohemiancoding.com/sketch -->
    <title>escucha_ON</title>
    <desc>Created with Sketch.</desc>
    <defs>
        <polygon id="path-1" points="24.2186263 22.2429775 0.0676855574 22.2429775 0.0676855574 0.376396419 24.2186263 0.376396419 24.2186263 22.2429775"></polygon>
    </defs>
    <g id="Symbols" stroke="none" stroke-width="1" fill="none" fill-rule="evenodd">
        <g id="Bottom-Bar/Escucha-hover" transform="translate(-172.000000, -5.000000)">
            <path d="M178.802697,18.1750604 C178.424454,18.1750604 178.093053,18.3786402 178.093053,18.610495 C178.093053,18.6440479 178.088369,18.6768469 178.083294,18.7088919 L178.084465,25.0406005 C178.088759,25.0568114 178.093833,25.0918724 178.093833,25.1276874 C178.093833,25.3595421 178.425235,25.5631219 178.803088,25.5631219 C179.179769,25.5631219 179.511561,25.3602961 179.513122,25.1291954 L179.512732,18.6451789 L179.515074,18.6251979 C179.512732,18.3786402 179.18094,18.1750604 178.802697,18.1750604" id="Fill-6" fill="#FFFFFF"></path>
            <g id="escucha_ON" transform="translate(174.000000, 7.000000)">
                <path d="M20.077891,9.29070321 C19.6793503,5.65831188 16.2985856,2.91940965 12.2152025,2.91940965 C8.08458795,2.91940965 4.77915946,5.58366595 4.35485611,9.25451124 C4.33221619,9.44640405 3.5007846,9.37929812 3.52303418,9.18665131 C3.9820781,5.21533733 7.71883612,2.22045236 12.2152025,2.22045236 C16.7334282,2.22045236 20.4717476,5.23230231 20.9104936,9.22623627 C20.9319625,9.41888308 20.0985792,9.47204002 20.077891,9.29070321" id="Fill-4" fill="#F56373"></path>
                <g id="Group-10" transform="translate(0.116273, 0.010481)">
                    <mask id="mask-2" fill="white">
                        <use xlink:href="#path-1"></use>
                    </mask>
                    <g id="Clip-9"></g>
                    <path d="M21.6091802,17.9325147 L21.4483587,17.9950966 L21.4483587,11.684123 L21.6091802,11.7467049 C23.1978781,12.3653613 23.321617,14.2707174 23.321617,14.8399868 C23.321617,15.4088792 23.1978781,17.3138583 21.6091802,17.9325147 M20.5431522,18.1172445 C20.5431522,18.4821801 20.1196295,18.7788788 19.5993017,18.7788788 C19.0785835,18.7788788 18.6550608,18.4821801 18.6550608,18.1172445 L18.6550608,11.5955281 C18.6550608,11.2351164 19.0785835,10.9384177 19.5993017,10.9384177 C20.1196295,10.9384177 20.5431522,11.2351164 20.5431522,11.6000521 C20.5431522,11.6204101 20.5462749,11.640014 20.5493977,11.659241 L20.5513494,18.0354356 C20.5462749,18.0776595 20.5431522,18.0972635 20.5431522,18.1172445 M2.6767413,11.7485899 L2.83756281,11.686008 L2.83756281,17.9958506 L2.6767413,17.9332687 C1.08804338,17.3134813 0.964694848,15.4092562 0.964694848,14.8403638 C0.964694848,14.2714714 1.08804338,12.3668693 2.6767413,11.7485899 M3.74276931,11.6000521 C3.74276931,11.2351164 4.16590163,10.9384177 4.68622948,10.9384177 C5.20694766,10.9384177 5.63047033,11.2351164 5.63047033,11.6000521 L5.63047033,18.1172445 C5.62851861,18.4833111 5.20499595,18.7788788 4.68701016,18.7788788 C4.16668232,18.7788788 3.74315966,18.4821801 3.74315966,18.1172445 C3.74315966,18.0934935 3.73925622,18.0708735 3.73535279,18.0482536 L3.73418176,11.681484 C3.73886588,11.643407 3.74276931,11.622295 3.74276931,11.6000521 M23.1330811,11.7316249 L23.102244,11.69958 L23.1018536,11.655848 C23.0468152,5.33092541 18.2143631,0.376396419 12.1004133,0.376396419 C5.93493823,0.376396419 1.10131506,5.37465737 1.09663094,11.7553759 L1.09663094,11.7972229 L1.06852621,11.8288908 C0.413920214,12.5681871 0.0676855574,13.609083 0.0676855574,14.8399868 C0.0676855574,17.0989685 1.2004623,18.631472 3.0979219,18.9391037 L3.14203072,18.9462666 L3.17013544,18.9801966 C3.22048975,19.0408935 3.27982196,19.1019675 3.35281619,19.1656804 L3.39106985,19.1996104 L3.39106985,22.1503864 C3.39887672,22.1745144 3.50544048,22.2431283 3.69787981,22.2431283 C3.89070949,22.2431283 3.99727325,22.1745144 4.00508012,22.1488784 L4.00508012,19.536648 L4.15184927,19.573971 C4.35053409,19.624866 4.5203335,19.6486169 4.68701016,19.6486169 C5.64296132,19.6486169 6.44550749,19.0231746 6.51420794,18.2246894 C6.52123412,18.1884974 6.5227955,18.1658774 6.52435687,18.1428805 L6.52747962,18.1146055 L6.52747962,11.5955281 C6.52747962,10.7555729 5.70151284,10.0686796 4.68622948,10.0686796 C4.10071427,10.0686796 3.56204029,10.2982724 3.2083891,10.697892 L3.18028438,10.729937 L3.13773694,10.7363459 C2.80126087,10.7872409 2.48391163,10.8784748 2.19427677,11.0062777 L2.01432843,11.0862016 L2.02877114,10.8954398 C2.44292556,5.39426135 6.77300566,1.24613454 12.1004133,1.24613454 C17.4079135,1.24613454 21.7368225,5.37616536 22.1697134,10.8528388 L22.1845465,11.0383226 L22.0073305,10.9655617 C21.7481425,10.8592478 21.4585076,10.7815859 21.1458425,10.7344609 L21.1032951,10.728052 L21.0751903,10.696384 C20.7215392,10.2975184 20.1832555,10.0686796 19.5993017,10.0686796 C18.5840183,10.0686796 17.7580515,10.7555729 17.7580515,11.6000521 L17.7580515,18.1172445 C17.7580515,18.1470275 17.761955,18.1779414 17.7697619,18.2126254 C17.8419754,19.0243056 18.6445216,19.6486169 19.5993017,19.6486169 C20.2051148,19.6486169 20.7726742,19.3979122 21.1181281,18.9783116 L21.1458425,18.9443816 L21.1903417,18.9372187 C23.0862399,18.628833 24.2186263,17.0963295 24.2186263,14.8381018 C24.2186263,13.5480091 23.8431159,12.4739372 23.1330811,11.7316249" id="Fill-8" fill="#F24052" mask="url(#mask-2)"></path>
                </g>
            </g>
        </g>
    </g>
</svg>