<?xml version="1.0" encoding="UTF-8"?>
<svg width="25px" height="25px" viewBox="0 0 25 25" version="1.1" xmlns="http://www.w3.org/2000/svg" xmlns:xlink="http://www.w3.org/1999/xlink">
    <!-- Generator: Sketch 39.1 (31720) - http://www.bohemiancoding.com/sketch -->
    <title>icono-info</title>
    <desc>Created with Sketch.</desc>
    <defs></defs>
    <g id="diseños" stroke="none" stroke-width="1" fill="none" fill-rule="evenodd">
        <g id="02-Formulario2-C" transform="translate(-475.000000, -444.000000)" fill="#FF5760">
            <g id="icono-info" transform="translate(475.000000, 444.000000)">
                <path d="M24.5,12.5 C24.5,5.872583 19.127417,0.5 12.5,0.5 C5.872583,0.5 0.5,5.872583 0.5,12.5 C0.5,19.127417 5.872583,24.5 12.5,24.5 C19.127417,24.5 24.5,19.127417 24.5,12.5 Z M1.5,12.5 C1.5,6.42486775 6.42486775,1.5 12.5,1.5 C18.5751322,1.5 23.5,6.42486775 23.5,12.5 C23.5,18.5751322 18.5751322,23.5 12.5,23.5 C6.42486775,23.5 1.5,18.5751322 1.5,12.5 Z" id="Oval-2"></path>
                <path d="M14.061,8.297 C14.061,7.41499559 13.5780048,6.974 12.612,6.974 C12.2899984,6.974 11.9890014,7.01249962 11.709,7.0895 C11.4289986,7.16650039 11.2645002,7.26099944 11.2155,7.373 C11.1664998,7.48500056 11.142,7.65299888 11.142,7.877 L11.142,8.99 L9,8.843 L9,5.966 C10.3440067,5.32199678 11.6284939,5 12.8535,5 C14.0785061,5 14.991997,5.28699713 15.594,5.861 C16.196003,6.43500287 16.497,7.18049541 16.497,8.0975 C16.497,9.01450459 16.3115019,9.73549738 15.9405,10.2605 C15.5694981,10.7855026 15.0900029,11.2614979 14.502,11.6885 C13.9139971,12.1155021 13.5430008,12.426999 13.389,12.623 C13.2349992,12.819001 13.1510001,13.112998 13.137,13.505 L13.032,15.815 L11.016,15.815 L10.911,13.61 L10.911,13.295 C10.911,12.6789969 11.0229989,12.168002 11.247,11.762 C11.4990013,11.3139978 12.0519957,10.7820031 12.906,10.166 C13.3680023,9.82999832 13.6339997,9.6025006 13.704,9.4835 C13.7740004,9.36449941 13.8439997,9.24900056 13.914,9.137 C14.0120005,8.92699895 14.061,8.64700175 14.061,8.297 L14.061,8.297 Z M10.9845,19.553 C10.7254987,19.2869987 10.596,18.958002 10.596,18.566 C10.596,18.173998 10.7289987,17.8415014 10.995,17.5685 C11.2610013,17.2954986 11.6074979,17.159 12.0345,17.159 C12.4615021,17.159 12.8079987,17.2884987 13.074,17.5475 C13.3400013,17.8065013 13.473,18.131998 13.473,18.524 C13.473,18.916002 13.3435013,19.2519986 13.0845,19.532 C12.8254987,19.8120014 12.4755022,19.952 12.0345,19.952 C11.5934978,19.952 11.2435013,19.8190013 10.9845,19.553 L10.9845,19.553 Z" id="?"></path>
            </g>
        </g>
    </g>
</svg>