<?xml version="1.0" encoding="UTF-8"?>
<svg width="158px" height="28px" viewBox="0 0 158 28" version="1.1" xmlns="http://www.w3.org/2000/svg" xmlns:xlink="http://www.w3.org/1999/xlink">
    <!-- Generator: Sketch 41 (35326) - http://www.bohemiancoding.com/sketch -->
    <title>LifeIn</title>
    <desc>Created with Sketch.</desc>
    <defs></defs>
    <g id="Diseño-visual-ok" stroke="none" stroke-width="1" fill="none" fill-rule="evenodd">
        <g id="1-on-boarding-1" transform="translate(-109.000000, -93.000000)" fill="#F24052">
            <path d="M122.245333,105.76 L122.245333,120 L125.349333,120 L125.349333,93.856 L122.405333,93.856 L117.445333,113.664 L112.517333,93.856 L109.189333,93.856 L109.189333,120 L112.261333,120 L112.261333,105.632 L116.069333,120 L118.821333,120 L122.245333,105.76 Z M135.472,117.088 C134,117.088 132.752,116 132.752,114.688 L132.752,93.856 L129.68,93.856 L129.68,114.688 C129.68,117.696 132.304,120.16 135.472,120.16 C138.672,120.16 141.328,117.696 141.328,114.688 L141.328,93.856 L138.224,93.856 L138.224,114.688 C138.224,116 136.944,117.088 135.472,117.088 Z M148.506666,99.424 C148.506666,98.08 149.722666,96.928 151.290666,96.928 C152.794666,96.928 154.074666,98.048 154.074666,99.424 L154.074666,102.048 L157.146666,102.048 L157.146666,99.424 C157.146666,96.352 154.554666,93.856 151.290666,93.856 C148.026666,93.856 145.402666,96.352 145.402666,99.424 L145.402666,103.264 C145.402666,106.304 148.122666,108.544 151.226666,108.544 C152.730666,108.544 154.042666,109.472 154.042666,110.816 L154.042666,114.56 C154.042666,115.904 152.826666,117.056 151.290666,117.056 C149.754666,117.056 148.474666,115.904 148.474666,114.56 L148.474666,112.032 L145.402666,112.032 L145.402666,114.56 C145.402666,117.632 148.026666,120.128 151.290666,120.128 C154.490666,120.128 157.146666,117.632 157.146666,114.56 L157.146666,110.816 C157.146666,107.744 154.298666,105.76 151.354666,105.536 C149.818666,105.44 148.506666,104.608 148.506666,103.264 L148.506666,99.424 Z M164.197333,93.856 L161.125333,93.856 L161.125333,120 L164.197333,120 L164.197333,93.856 Z M175.12,120.224 C178.384,120.224 181.008,117.728 181.008,114.656 L181.008,112.8 L177.904,112.8 L177.904,114.656 C177.904,116 176.624,117.152 175.12,117.152 C173.296,117.152 171.696,116 171.696,114.656 L171.696,99.424 C171.696,98.08 173.296,96.928 175.12,96.928 C176.624,96.928 177.904,98.08 177.904,99.424 L177.904,101.152 L181.008,101.152 L181.008,99.424 C181.008,96.352 178.384,93.856 175.12,93.856 C171.632,93.856 168.592,96.352 168.592,99.424 L168.592,114.656 C168.592,117.728 171.632,120.224 175.12,120.224 Z M184.858667,120 C187.898667,120 190.394667,118.464 190.394667,115.104 L190.394667,93.856 L187.322667,93.856 L187.322667,115.104 C187.322667,116.576 186.010667,117.152 182.842667,117.12 L182.842667,120 L184.858667,120 Z M200.421333,117.088 C198.949333,117.088 197.701333,116 197.701333,114.688 L197.701333,93.856 L194.629333,93.856 L194.629333,114.688 C194.629333,117.696 197.253333,120.16 200.421333,120.16 C203.621333,120.16 206.277333,117.696 206.277333,114.688 L206.277333,93.856 L203.173333,93.856 L203.173333,114.688 C203.173333,116 201.893333,117.088 200.421333,117.088 Z M217.168,120.224 C220.24,120.224 223.056,117.952 223.056,114.944 L223.056,108.256 L216.72,108.256 L216.72,111.296 L219.984,111.296 L219.984,114.944 C219.984,116.256 218.608,117.216 217.168,117.216 C215.408,117.216 213.744,116.256 213.744,114.944 L213.744,99.36 C213.744,98.048 215.344,96.928 217.168,96.928 C218.672,96.928 219.984,98.048 219.984,99.36 L219.984,103.136 L223.056,103.136 L223.056,99.36 C223.056,96.32 220.368,93.856 217.168,93.856 C213.68,93.856 210.64,96.32 210.64,99.36 L210.64,114.944 C210.64,117.952 213.776,120.224 217.168,120.224 Z M233.882667,120.224 C236.954667,120.224 239.770667,117.952 239.770667,114.944 L239.770667,108.256 L233.434667,108.256 L233.434667,111.296 L236.698667,111.296 L236.698667,114.944 C236.698667,116.256 235.322667,117.216 233.882667,117.216 C232.122667,117.216 230.458667,116.256 230.458667,114.944 L230.458667,99.36 C230.458667,98.048 232.058667,96.928 233.882667,96.928 C235.386667,96.928 236.698667,98.048 236.698667,99.36 L236.698667,103.136 L239.770667,103.136 L239.770667,99.36 C239.770667,96.32 237.082667,93.856 233.882667,93.856 C230.394667,93.856 227.354667,96.32 227.354667,99.36 L227.354667,114.944 C227.354667,117.952 230.490667,120.224 233.882667,120.224 Z M252.581334,116.928 L247.109334,116.928 L247.109334,93.856 L244.037334,93.856 L244.037334,120 L252.581334,120 L252.581334,116.928 Z M256.24,93.856 L256.24,120 L266.288,120 L266.288,116.928 L259.312,116.928 L259.312,106.272 L265.424,106.272 L265.424,103.2 L259.312,103.2 L259.312,96.928 L266.288,96.928 L266.288,93.856 L256.24,93.856 Z" id="LifeIn"></path>
        </g>
    </g>
</svg>